Downloaded from youtube, webm format - 1080p
medianinfo:

Complete name                            : Baklava.2007.1080p.English.Subs.Hardcoded.webm
Format                                   : WebM
Format version                           : Version 2
File size                                : 4.39 GiB
Duration                                 : 1h 46mn
Overall bit rate mode                    : Variable
Overall bit rate                         : 5 923 Kbps
Writing application                      : google
Writing library                          : google

Video
ID                                       : 1
Format                                   : VP8
Codec ID                                 : V_VP8
Duration                                 : 1h 46mn
Bit rate                                 : 5 488 Kbps
Width                                    : 1 920 pixels
Height                                   : 1 080 pixels
Display aspect ratio                     : 16:9
Frame rate mode                          : Constant
Frame rate                               : 25.000 fps
Compression mode                         : Lossy
Bits/(Pixel*Frame)                       : 0.106
Stream size                              : 4.07 GiB (93%)
Language                                 : English
Default                                  : Yes
Forced                                   : No

Audio
ID                                       : 2
Format                                   : Vorbis
Format settings, Floor                   : 1
Codec ID                                 : A_VORBIS
Duration                                 : 1h 46mn
Bit rate mode                            : Variable
Bit rate                                 : 192 Kbps
Channel(s)                               : 2 channels
Sampling rate                            : 44.1 KHz
Compression mode                         : Lossy
Stream size                              : 146 MiB (3%)
Default                                  : Yes
Forced                                   : No

Audio: Bulgarian original
Subtitles: English hardcoded